<mxfile host="app.diagrams.net" modified="2022-06-18T08:20:05.902Z" agent="5.0 (Windows NT 10.0; Win64; x64) AppleWebKit/537.36 (KHTML, like Gecko) Chrome/102.0.0.0 Safari/537.36" etag="51OlDTssawkrmXu-zDmI" version="20.0.1" type="github" pages="2">
  <diagram id="REg2aZPlae-T24zTXOJs" name="Context">
    <mxGraphModel dx="1780" dy="1004" grid="1" gridSize="10" guides="1" tooltips="1" connect="1" arrows="1" fold="1" page="1" pageScale="1" pageWidth="850" pageHeight="1100" math="0" shadow="0">
      <root>
        <mxCell id="0" />
        <mxCell id="1" parent="0" />
        <object label="&lt;font style=&quot;font-size: 16px&quot;&gt;&lt;b&gt;%A_NAME%&lt;/b&gt;&lt;/font&gt;&lt;br&gt;&lt;div&gt;&lt;font style=&quot;font-size: 11px&quot;&gt;[Person]&lt;/font&gt;&lt;/div&gt;&lt;div style=&quot;font-size: 10px&quot;&gt;&lt;br&gt;&lt;/div&gt;&lt;div style=&quot;font-size: 11px&quot;&gt;&lt;font color=&quot;#CCCCCC&quot;&gt;%B_DESCRIPTION%&lt;/font&gt;&lt;/div&gt;" A_NAME="Technical Analyst" B_DESCRIPTION="Analyst auditing a GTM implementation" placeholders="1" id="ZALPd01usb3EjFmFUmlJ-1">
          <mxCell style="shape=stencil(tZTRUsMgEEW/hsdmCNimr06s/4Fka3aSQAZwWv16STYZRaXjaDuTl3sXTu6SJUzWvlUjMMGNGoDJBybEoDRCJ3fbjb7bjOC8NdGNS1qql3tO+kRa8EUrP4IOZB7xDA3ZPjjbwQmbsADQtOAwTFV5YPw+rpkeWWtrTCSgNT6pfKpHmEIT9/IzwXixpde8LppUzI0DBHBLZnKZePw9OMUW1bXA5a3AvBDpWZTXI98MXP2DLOvo5IZG1k9Kd8/OvpjmxzxzxU0Tm/nmVWbO13tQrnPvtMe35fZIcfkUjtj3dCNyDWVix63WwYV+oO9x9PDRze7LCCfd7NNmVvn32N/SzS79XmbjHQ==);whiteSpace=wrap;html=1;rounded=1;fontColor=#ffffff;arcSize=30;allowArrows=0;rotatable=0;spacingTop=70;aspect=fixed;editable=1;metaEdit=1;resizable=0;strokeColor=#06315C;fillColor=#083F75;recursiveResize=0;expand=0;" parent="1" vertex="1">
            <mxGeometry x="160" y="180" width="200" height="180" as="geometry" />
          </mxCell>
        </object>
        <mxCell id="ZALPd01usb3EjFmFUmlJ-2" value="&lt;div style=&quot;font-size: 16px&quot;&gt;&lt;font style=&quot;font-size: 16px&quot;&gt;&lt;b&gt;&lt;font style=&quot;font-size: 16px&quot; color=&quot;#4D4D4D&quot;&gt;Legend&lt;/font&gt;&lt;/b&gt;&lt;/font&gt;&lt;/div&gt;&lt;div style=&quot;font-size: 14px&quot;&gt;&lt;font style=&quot;font-size: 14px ; line-height: 1&quot; color=&quot;#FFFFFF&quot;&gt;&lt;br&gt;&lt;/font&gt;&lt;/div&gt;&lt;div&gt;&lt;font style=&quot;font-size: 12px&quot; color=&quot;#FFFFFF&quot;&gt;&amp;nbsp; Person&lt;/font&gt;&lt;/div&gt;&lt;div style=&quot;font-size: 11px&quot;&gt;&lt;font style=&quot;font-size: 11px ; line-height: 1.4&quot; color=&quot;#FFFFFF&quot;&gt;&lt;br&gt;&lt;/font&gt;&lt;/div&gt;&lt;div&gt;&lt;font style=&quot;font-size: 12px&quot; color=&quot;#FFFFFF&quot;&gt;&amp;nbsp; Software System&lt;/font&gt;&lt;/div&gt;&lt;div style=&quot;font-size: 11px&quot;&gt;&lt;font style=&quot;font-size: 11px ; line-height: 1.4&quot; color=&quot;#FFFFFF&quot;&gt;&lt;br&gt;&lt;/font&gt;&lt;/div&gt;&lt;div&gt;&lt;font style=&quot;font-size: 12px&quot; color=&quot;#FFFFFF&quot;&gt;&amp;nbsp; Container&lt;/font&gt;&lt;/div&gt;&lt;div style=&quot;font-size: 11px&quot;&gt;&lt;font style=&quot;font-size: 11px ; line-height: 1.4&quot; color=&quot;#FFFFFF&quot;&gt;&lt;br&gt;&lt;/font&gt;&lt;/div&gt;&lt;div&gt;&lt;font style=&quot;font-size: 12px&quot; color=&quot;#FFFFFF&quot;&gt;&amp;nbsp; Component&lt;br style=&quot;font-size: 11px&quot;&gt;&lt;/font&gt;&lt;/div&gt;&lt;div style=&quot;font-size: 11px&quot;&gt;&lt;font style=&quot;font-size: 11px ; line-height: 1.4&quot; color=&quot;#FFFFFF&quot;&gt;&lt;br&gt;&lt;/font&gt;&lt;/div&gt;&lt;div&gt;&lt;font style=&quot;font-size: 12px&quot; color=&quot;#FFFFFF&quot;&gt;&amp;nbsp; External Person&lt;/font&gt;&lt;/div&gt;&lt;div style=&quot;font-size: 11px&quot;&gt;&lt;font style=&quot;font-size: 11px ; line-height: 1.4&quot; color=&quot;#FFFFFF&quot;&gt;&lt;br&gt;&lt;/font&gt;&lt;/div&gt;&lt;div&gt;&lt;font style=&quot;font-size: 12px&quot; color=&quot;#E6E6E6&quot;&gt;&lt;font style=&quot;font-size: 12px&quot; color=&quot;#FFFFFF&quot;&gt;&amp;nbsp; External Software System&lt;/font&gt;&lt;br style=&quot;font-size: 11px&quot;&gt;&lt;/font&gt;&lt;/div&gt;" style="shape=stencil(vVXRjoMgEPwaHpvgrqI+trT+h0dpJVpp0Et79/WHgsnlTr3Gnk1MDDMMuzPGhSBvivwqCdA6v0iCewJwyYWSJbJoI8JNJc+yPlrUbrk5PmDUrQu3hsCv8+YqRevAk7pLL2tao0t5U8fWC1RdSKPajsUDoVu7p3uQv+WiPBv9bgt+Jwa6Z0xXAujdHeUrf/zobKLTaGjUiEZ9ervDGQSy0aqufaErbSzg3r2QACY8CVM2rz+pqnpOPUIjt8hEXFakjXwqx2g+RxzLMVgaA+MsjONFMTzuCF7qCHeHDNZ1lL7SEOAW9um6hnDe0KJ/d9oRTTCLo3Ud/TGN/vcTBZQFuwfimBomv2ZGj7rboQe+AA==);whiteSpace=wrap;html=1;align=left;verticalAlign=top;spacingBottom=0;spacingTop=-5;connectable=0;allowArrows=0;recursiveResize=0;expand=0;metaEdit=1;resizable=0;rotatable=0;" parent="1" vertex="1">
          <mxGeometry x="670" y="10" width="160" height="210" as="geometry" />
        </mxCell>
        <object label="&lt;div&gt;&lt;font color=&quot;#4D4D4D&quot;&gt;&lt;b style=&quot;font-size: 16px&quot;&gt;&lt;font style=&quot;font-size: 16px&quot;&gt;[System Context] %A_C1_DIAGRAM_NAME%&lt;br&gt;&lt;/font&gt;&lt;/b&gt;&lt;/font&gt;&lt;/div&gt;&lt;div&gt;&lt;font style=&quot;font-size: 12px&quot; color=&quot;#4D4D4D&quot;&gt;%B_C1_DIAGRAM_DESCRIPTION%&lt;br&gt;&lt;/font&gt;&lt;/div&gt;" A_C1_DIAGRAM_NAME="Project overview" B_C1_DIAGRAM_DESCRIPTION="Sets end product context" placeholders="1" id="ZALPd01usb3EjFmFUmlJ-3">
          <mxCell style="text;html=1;strokeColor=none;fillColor=none;align=left;verticalAlign=top;whiteSpace=wrap;rounded=0;metaEdit=1;allowArrows=0;resizable=1;rotatable=0;connectable=0;recursiveResize=0;expand=0;pointerEvents=0;" parent="1" vertex="1">
            <mxGeometry x="10" y="10" width="290" height="40" as="geometry" />
          </mxCell>
        </object>
        <object label="&lt;div&gt;&lt;b&gt;%A_DESCRIPTION%&lt;/b&gt;&lt;br&gt;&lt;/div&gt;&lt;div&gt;[%B_TECHNOLOGY%]&lt;/div&gt;" placeholders="1" A_DESCRIPTION="Views current container status and recommended issues" B_TECHNOLOGY="web application" id="ZALPd01usb3EjFmFUmlJ-4">
          <mxCell style="endArrow=blockThin;html=1;fontSize=10;fontColor=#404040;strokeWidth=1;endFill=1;strokeColor=#828282;elbow=vertical;metaEdit=1;endSize=14;startSize=14;jumpStyle=arc;jumpSize=16;rounded=0;exitX=0.5;exitY=1;exitDx=0;exitDy=0;entryX=0.5;entryY=0;entryDx=0;entryDy=0;entryPerimeter=0;" parent="1" source="ZALPd01usb3EjFmFUmlJ-1" target="ZALPd01usb3EjFmFUmlJ-5" edge="1">
            <mxGeometry width="50" height="50" relative="1" as="geometry">
              <mxPoint x="200" y="450" as="sourcePoint" />
              <mxPoint x="260" y="490" as="targetPoint" />
            </mxGeometry>
          </mxCell>
        </object>
        <object label="&lt;font style=&quot;font-size: 16px&quot;&gt;&lt;b&gt;%A_NAME%&lt;/b&gt;&lt;/font&gt;&lt;br&gt;&lt;div&gt;&lt;font style=&quot;font-size: 11px&quot;&gt;[Software System]&lt;/font&gt;&lt;/div&gt;&lt;div style=&quot;font-size: 10px&quot;&gt;&lt;br&gt;&lt;/div&gt;&lt;div style=&quot;font-size: 11px&quot;&gt;&lt;font color=&quot;#CCCCCC&quot;&gt;%B_DESCRIPTION%&lt;/font&gt;&lt;/div&gt;" placeholders="1" A_NAME="Auditor System" B_DESCRIPTION="Queries GTM container, displays status in meaningful way and compares to recent GA data" id="ZALPd01usb3EjFmFUmlJ-5">
          <mxCell style="rounded=1;whiteSpace=wrap;html=1;fontColor=#ffffff;arcSize=6;metaEdit=1;points=[[0.25,0,0],[0.5,0,0],[0.75,0,0],[1,0.25,0],[1,0.5,0],[1,0.75,0],[0.75,1,0],[0.5,1,0],[0.25,1,0],[0,0.75,0],[0,0.5,0],[0,0.25,0]];resizable=0;editable=1;movableLabel=0;allowArrows=0;rotatable=0;imageWidth=24;fillColor=#1061B0;strokeColor=#0D5091;expand=0;recursiveResize=0;" parent="1" vertex="1">
            <mxGeometry x="140" y="470" width="240" height="120" as="geometry" />
          </mxCell>
        </object>
        <object label="&lt;div&gt;&lt;b&gt;%A_DESCRIPTION%&lt;/b&gt;&lt;br&gt;&lt;/div&gt;&lt;div&gt;[%B_TECHNOLOGY%]&lt;/div&gt;" placeholders="1" A_DESCRIPTION="Gets container information" B_TECHNOLOGY="GTM API" id="ZALPd01usb3EjFmFUmlJ-7">
          <mxCell style="endArrow=blockThin;html=1;fontSize=10;fontColor=#404040;strokeWidth=1;endFill=1;strokeColor=#828282;elbow=vertical;metaEdit=1;endSize=14;startSize=14;jumpStyle=arc;jumpSize=16;rounded=0;exitX=0.5;exitY=1;exitDx=0;exitDy=0;exitPerimeter=0;" parent="1" source="ZALPd01usb3EjFmFUmlJ-5" target="ZALPd01usb3EjFmFUmlJ-8" edge="1">
            <mxGeometry width="50" height="50" relative="1" as="geometry">
              <mxPoint x="210" y="670" as="sourcePoint" />
              <mxPoint x="260" y="710" as="targetPoint" />
            </mxGeometry>
          </mxCell>
        </object>
        <object label="&lt;font style=&quot;font-size: 16px&quot;&gt;&lt;b&gt;%A_NAME%&lt;/b&gt;&lt;/font&gt;&lt;br&gt;&lt;div&gt;&lt;font style=&quot;font-size: 11px&quot;&gt;[Software System]&lt;/font&gt;&lt;/div&gt;&lt;div style=&quot;font-size: 10px&quot;&gt;&lt;br&gt;&lt;/div&gt;&lt;div style=&quot;font-size: 11px&quot;&gt;&lt;font color=&quot;#CCCCCC&quot;&gt;%B_DESCRIPTION%&lt;/font&gt;&lt;/div&gt;" placeholders="1" A_NAME="Google Tag Manager" B_DESCRIPTION="Target GTM container" id="ZALPd01usb3EjFmFUmlJ-8">
          <mxCell style="rounded=1;whiteSpace=wrap;html=1;fontColor=#ffffff;arcSize=6;metaEdit=1;points=[[0.25,0,0],[0.5,0,0],[0.75,0,0],[1,0.25,0],[1,0.5,0],[1,0.75,0],[0.75,1,0],[0.5,1,0],[0.25,1,0],[0,0.75,0],[0,0.5,0],[0,0.25,0]];resizable=0;editable=1;movableLabel=0;allowArrows=0;rotatable=0;fillColor=#8C8496;strokeColor=#736782;recursiveResize=0;expand=0;" parent="1" vertex="1">
            <mxGeometry x="140" y="680" width="240" height="120" as="geometry" />
          </mxCell>
        </object>
        <object label="&lt;div&gt;&lt;b&gt;%A_DESCRIPTION%&lt;/b&gt;&lt;br&gt;&lt;/div&gt;&lt;div&gt;[%B_TECHNOLOGY%]&lt;/div&gt;" placeholders="1" A_DESCRIPTION="Gets recent GA event data" B_TECHNOLOGY="GA API" id="ZALPd01usb3EjFmFUmlJ-10">
          <mxCell style="endArrow=blockThin;html=1;fontSize=10;fontColor=#404040;strokeWidth=1;endFill=1;strokeColor=#828282;elbow=vertical;metaEdit=1;endSize=14;startSize=14;jumpStyle=arc;jumpSize=16;rounded=0;exitX=1;exitY=0.5;exitDx=0;exitDy=0;exitPerimeter=0;" parent="1" source="ZALPd01usb3EjFmFUmlJ-5" target="ZALPd01usb3EjFmFUmlJ-11" edge="1">
            <mxGeometry width="50" height="50" relative="1" as="geometry">
              <mxPoint x="310" y="490" as="sourcePoint" />
              <mxPoint x="660" y="520" as="targetPoint" />
            </mxGeometry>
          </mxCell>
        </object>
        <object label="&lt;font style=&quot;font-size: 16px&quot;&gt;&lt;b&gt;%A_NAME%&lt;/b&gt;&lt;/font&gt;&lt;br&gt;&lt;div&gt;&lt;font style=&quot;font-size: 11px&quot;&gt;[Software System]&lt;/font&gt;&lt;/div&gt;&lt;div style=&quot;font-size: 10px&quot;&gt;&lt;br&gt;&lt;/div&gt;&lt;div style=&quot;font-size: 11px&quot;&gt;&lt;font color=&quot;#CCCCCC&quot;&gt;%B_DESCRIPTION%&lt;/font&gt;&lt;/div&gt;" placeholders="1" A_NAME="Google Analytics" B_DESCRIPTION="Target GTM property/view" id="ZALPd01usb3EjFmFUmlJ-11">
          <mxCell style="rounded=1;whiteSpace=wrap;html=1;fontColor=#ffffff;arcSize=6;metaEdit=1;points=[[0.25,0,0],[0.5,0,0],[0.75,0,0],[1,0.25,0],[1,0.5,0],[1,0.75,0],[0.75,1,0],[0.5,1,0],[0.25,1,0],[0,0.75,0],[0,0.5,0],[0,0.25,0]];resizable=0;editable=1;movableLabel=0;allowArrows=0;rotatable=0;fillColor=#8C8496;strokeColor=#736782;recursiveResize=0;expand=0;" parent="1" vertex="1">
            <mxGeometry x="590" y="470" width="240" height="120" as="geometry" />
          </mxCell>
        </object>
      </root>
    </mxGraphModel>
  </diagram>
  <diagram name="Container" id="ddGKPfdgjcyqO1kOFmF2">
    <mxGraphModel dx="1780" dy="1004" grid="1" gridSize="10" guides="1" tooltips="1" connect="1" arrows="1" fold="1" page="1" pageScale="1" pageWidth="850" pageHeight="1100" math="0" shadow="0">
      <root>
        <mxCell id="nUrpw0ir7B1ttyLOeplj-0" />
        <mxCell id="nUrpw0ir7B1ttyLOeplj-1" parent="nUrpw0ir7B1ttyLOeplj-0" />
        <object label="&lt;font style=&quot;font-size: 16px&quot;&gt;&lt;b&gt;%A_NAME%&lt;/b&gt;&lt;/font&gt;&lt;br&gt;&lt;div&gt;&lt;font style=&quot;font-size: 11px&quot;&gt;[Person]&lt;/font&gt;&lt;/div&gt;&lt;div style=&quot;font-size: 10px&quot;&gt;&lt;br&gt;&lt;/div&gt;&lt;div style=&quot;font-size: 11px&quot;&gt;&lt;font color=&quot;#CCCCCC&quot;&gt;%B_DESCRIPTION%&lt;/font&gt;&lt;/div&gt;" A_NAME="Technical Analyst" B_DESCRIPTION="Analyst auditing a GTM implementation" placeholders="1" id="nUrpw0ir7B1ttyLOeplj-2">
          <mxCell style="shape=stencil(tZTRUsMgEEW/hsdmCNimr06s/4Fka3aSQAZwWv16STYZRaXjaDuTl3sXTu6SJUzWvlUjMMGNGoDJBybEoDRCJ3fbjb7bjOC8NdGNS1qql3tO+kRa8EUrP4IOZB7xDA3ZPjjbwQmbsADQtOAwTFV5YPw+rpkeWWtrTCSgNT6pfKpHmEIT9/IzwXixpde8LppUzI0DBHBLZnKZePw9OMUW1bXA5a3AvBDpWZTXI98MXP2DLOvo5IZG1k9Kd8/OvpjmxzxzxU0Tm/nmVWbO13tQrnPvtMe35fZIcfkUjtj3dCNyDWVix63WwYV+oO9x9PDRze7LCCfd7NNmVvn32N/SzS79XmbjHQ==);whiteSpace=wrap;html=1;rounded=1;fontColor=#ffffff;arcSize=30;allowArrows=0;rotatable=0;spacingTop=70;aspect=fixed;editable=1;metaEdit=1;resizable=0;strokeColor=#06315C;fillColor=#083F75;recursiveResize=0;expand=0;" vertex="1" parent="nUrpw0ir7B1ttyLOeplj-1">
            <mxGeometry x="160" y="180" width="200" height="180" as="geometry" />
          </mxCell>
        </object>
        <mxCell id="nUrpw0ir7B1ttyLOeplj-3" value="&lt;div style=&quot;font-size: 16px&quot;&gt;&lt;font style=&quot;font-size: 16px&quot;&gt;&lt;b&gt;&lt;font style=&quot;font-size: 16px&quot; color=&quot;#4D4D4D&quot;&gt;Legend&lt;/font&gt;&lt;/b&gt;&lt;/font&gt;&lt;/div&gt;&lt;div style=&quot;font-size: 14px&quot;&gt;&lt;font style=&quot;font-size: 14px ; line-height: 1&quot; color=&quot;#FFFFFF&quot;&gt;&lt;br&gt;&lt;/font&gt;&lt;/div&gt;&lt;div&gt;&lt;font style=&quot;font-size: 12px&quot; color=&quot;#FFFFFF&quot;&gt;&amp;nbsp; Person&lt;/font&gt;&lt;/div&gt;&lt;div style=&quot;font-size: 11px&quot;&gt;&lt;font style=&quot;font-size: 11px ; line-height: 1.4&quot; color=&quot;#FFFFFF&quot;&gt;&lt;br&gt;&lt;/font&gt;&lt;/div&gt;&lt;div&gt;&lt;font style=&quot;font-size: 12px&quot; color=&quot;#FFFFFF&quot;&gt;&amp;nbsp; Software System&lt;/font&gt;&lt;/div&gt;&lt;div style=&quot;font-size: 11px&quot;&gt;&lt;font style=&quot;font-size: 11px ; line-height: 1.4&quot; color=&quot;#FFFFFF&quot;&gt;&lt;br&gt;&lt;/font&gt;&lt;/div&gt;&lt;div&gt;&lt;font style=&quot;font-size: 12px&quot; color=&quot;#FFFFFF&quot;&gt;&amp;nbsp; Container&lt;/font&gt;&lt;/div&gt;&lt;div style=&quot;font-size: 11px&quot;&gt;&lt;font style=&quot;font-size: 11px ; line-height: 1.4&quot; color=&quot;#FFFFFF&quot;&gt;&lt;br&gt;&lt;/font&gt;&lt;/div&gt;&lt;div&gt;&lt;font style=&quot;font-size: 12px&quot; color=&quot;#FFFFFF&quot;&gt;&amp;nbsp; Component&lt;br style=&quot;font-size: 11px&quot;&gt;&lt;/font&gt;&lt;/div&gt;&lt;div style=&quot;font-size: 11px&quot;&gt;&lt;font style=&quot;font-size: 11px ; line-height: 1.4&quot; color=&quot;#FFFFFF&quot;&gt;&lt;br&gt;&lt;/font&gt;&lt;/div&gt;&lt;div&gt;&lt;font style=&quot;font-size: 12px&quot; color=&quot;#FFFFFF&quot;&gt;&amp;nbsp; External Person&lt;/font&gt;&lt;/div&gt;&lt;div style=&quot;font-size: 11px&quot;&gt;&lt;font style=&quot;font-size: 11px ; line-height: 1.4&quot; color=&quot;#FFFFFF&quot;&gt;&lt;br&gt;&lt;/font&gt;&lt;/div&gt;&lt;div&gt;&lt;font style=&quot;font-size: 12px&quot; color=&quot;#E6E6E6&quot;&gt;&lt;font style=&quot;font-size: 12px&quot; color=&quot;#FFFFFF&quot;&gt;&amp;nbsp; External Software System&lt;/font&gt;&lt;br style=&quot;font-size: 11px&quot;&gt;&lt;/font&gt;&lt;/div&gt;" style="shape=stencil(vVXRjoMgEPwaHpvgrqI+trT+h0dpJVpp0Et79/WHgsnlTr3Gnk1MDDMMuzPGhSBvivwqCdA6v0iCewJwyYWSJbJoI8JNJc+yPlrUbrk5PmDUrQu3hsCv8+YqRevAk7pLL2tao0t5U8fWC1RdSKPajsUDoVu7p3uQv+WiPBv9bgt+Jwa6Z0xXAujdHeUrf/zobKLTaGjUiEZ9ervDGQSy0aqufaErbSzg3r2QACY8CVM2rz+pqnpOPUIjt8hEXFakjXwqx2g+RxzLMVgaA+MsjONFMTzuCF7qCHeHDNZ1lL7SEOAW9um6hnDe0KJ/d9oRTTCLo3Ud/TGN/vcTBZQFuwfimBomv2ZGj7rboQe+AA==);whiteSpace=wrap;html=1;align=left;verticalAlign=top;spacingBottom=0;spacingTop=-5;connectable=0;allowArrows=0;recursiveResize=0;expand=0;metaEdit=1;resizable=0;rotatable=0;" vertex="1" parent="nUrpw0ir7B1ttyLOeplj-1">
          <mxGeometry x="670" y="10" width="160" height="210" as="geometry" />
        </mxCell>
        <object label="&lt;div&gt;&lt;b&gt;%A_DESCRIPTION%&lt;/b&gt;&lt;br&gt;&lt;/div&gt;&lt;div&gt;[%B_TECHNOLOGY%]&lt;/div&gt;" placeholders="1" A_DESCRIPTION="Views current container status and recommended issues" B_TECHNOLOGY="web application" id="nUrpw0ir7B1ttyLOeplj-5">
          <mxCell style="endArrow=blockThin;html=1;fontSize=10;fontColor=#404040;strokeWidth=1;endFill=1;strokeColor=#828282;elbow=vertical;metaEdit=1;endSize=14;startSize=14;jumpStyle=arc;jumpSize=16;rounded=0;exitX=0.5;exitY=1;exitDx=0;exitDy=0;entryX=0.5;entryY=0;entryDx=0;entryDy=0;entryPerimeter=0;" edge="1" parent="nUrpw0ir7B1ttyLOeplj-1" source="nUrpw0ir7B1ttyLOeplj-2" target="nUrpw0ir7B1ttyLOeplj-6">
            <mxGeometry width="50" height="50" relative="1" as="geometry">
              <mxPoint x="200" y="450" as="sourcePoint" />
              <mxPoint x="260" y="490" as="targetPoint" />
            </mxGeometry>
          </mxCell>
        </object>
        <object label="&lt;font style=&quot;font-size: 16px&quot;&gt;&lt;b&gt;%A_NAME%&lt;/b&gt;&lt;/font&gt;&lt;br&gt;&lt;div&gt;&lt;font style=&quot;font-size: 11px&quot;&gt;[Software System]&lt;/font&gt;&lt;/div&gt;&lt;div style=&quot;font-size: 10px&quot;&gt;&lt;br&gt;&lt;/div&gt;&lt;div style=&quot;font-size: 11px&quot;&gt;&lt;font color=&quot;#CCCCCC&quot;&gt;%B_DESCRIPTION%&lt;/font&gt;&lt;/div&gt;" placeholders="1" A_NAME="Auditor System" B_DESCRIPTION="Queries GTM container, displays status in meaningful way and compares to recent GA data" id="nUrpw0ir7B1ttyLOeplj-6">
          <mxCell style="rounded=1;whiteSpace=wrap;html=1;fontColor=#ffffff;arcSize=6;metaEdit=1;points=[[0.25,0,0],[0.5,0,0],[0.75,0,0],[1,0.25,0],[1,0.5,0],[1,0.75,0],[0.75,1,0],[0.5,1,0],[0.25,1,0],[0,0.75,0],[0,0.5,0],[0,0.25,0]];resizable=0;editable=1;movableLabel=0;allowArrows=0;rotatable=0;imageWidth=24;fillColor=#1061B0;strokeColor=#0D5091;expand=0;recursiveResize=0;" vertex="1" parent="nUrpw0ir7B1ttyLOeplj-1">
            <mxGeometry x="140" y="530" width="240" height="120" as="geometry" />
          </mxCell>
        </object>
        <object label="&lt;div&gt;&lt;b&gt;%A_DESCRIPTION%&lt;/b&gt;&lt;br&gt;&lt;/div&gt;&lt;div&gt;[%B_TECHNOLOGY%]&lt;/div&gt;" placeholders="1" A_DESCRIPTION="Gets container information" B_TECHNOLOGY="GTM API" id="nUrpw0ir7B1ttyLOeplj-7">
          <mxCell style="endArrow=blockThin;html=1;fontSize=10;fontColor=#404040;strokeWidth=1;endFill=1;strokeColor=#828282;elbow=vertical;metaEdit=1;endSize=14;startSize=14;jumpStyle=arc;jumpSize=16;rounded=0;exitX=0.5;exitY=1;exitDx=0;exitDy=0;exitPerimeter=0;" edge="1" parent="nUrpw0ir7B1ttyLOeplj-1" source="nUrpw0ir7B1ttyLOeplj-6" target="nUrpw0ir7B1ttyLOeplj-8">
            <mxGeometry width="50" height="50" relative="1" as="geometry">
              <mxPoint x="210" y="670" as="sourcePoint" />
              <mxPoint x="260" y="710" as="targetPoint" />
            </mxGeometry>
          </mxCell>
        </object>
        <object label="&lt;font style=&quot;font-size: 16px&quot;&gt;&lt;b&gt;%A_NAME%&lt;/b&gt;&lt;/font&gt;&lt;br&gt;&lt;div&gt;&lt;font style=&quot;font-size: 11px&quot;&gt;[Software System]&lt;/font&gt;&lt;/div&gt;&lt;div style=&quot;font-size: 10px&quot;&gt;&lt;br&gt;&lt;/div&gt;&lt;div style=&quot;font-size: 11px&quot;&gt;&lt;font color=&quot;#CCCCCC&quot;&gt;%B_DESCRIPTION%&lt;/font&gt;&lt;/div&gt;" placeholders="1" A_NAME="Google Tag Manager" B_DESCRIPTION="Target GTM container" id="nUrpw0ir7B1ttyLOeplj-8">
          <mxCell style="rounded=1;whiteSpace=wrap;html=1;fontColor=#ffffff;arcSize=6;metaEdit=1;points=[[0.25,0,0],[0.5,0,0],[0.75,0,0],[1,0.25,0],[1,0.5,0],[1,0.75,0],[0.75,1,0],[0.5,1,0],[0.25,1,0],[0,0.75,0],[0,0.5,0],[0,0.25,0]];resizable=0;editable=1;movableLabel=0;allowArrows=0;rotatable=0;fillColor=#8C8496;strokeColor=#736782;recursiveResize=0;expand=0;" vertex="1" parent="nUrpw0ir7B1ttyLOeplj-1">
            <mxGeometry x="140" y="970" width="240" height="120" as="geometry" />
          </mxCell>
        </object>
        <object label="&lt;div&gt;&lt;b&gt;%A_DESCRIPTION%&lt;/b&gt;&lt;br&gt;&lt;/div&gt;&lt;div&gt;[%B_TECHNOLOGY%]&lt;/div&gt;" placeholders="1" A_DESCRIPTION="Gets recent GA event data" B_TECHNOLOGY="GA API" id="nUrpw0ir7B1ttyLOeplj-9">
          <mxCell style="endArrow=blockThin;html=1;fontSize=10;fontColor=#404040;strokeWidth=1;endFill=1;strokeColor=#828282;elbow=vertical;metaEdit=1;endSize=14;startSize=14;jumpStyle=arc;jumpSize=16;rounded=0;exitX=1;exitY=0.5;exitDx=0;exitDy=0;exitPerimeter=0;" edge="1" parent="nUrpw0ir7B1ttyLOeplj-1" source="nUrpw0ir7B1ttyLOeplj-6" target="nUrpw0ir7B1ttyLOeplj-10">
            <mxGeometry width="50" height="50" relative="1" as="geometry">
              <mxPoint x="310" y="490" as="sourcePoint" />
              <mxPoint x="660" y="520" as="targetPoint" />
            </mxGeometry>
          </mxCell>
        </object>
        <object label="&lt;font style=&quot;font-size: 16px&quot;&gt;&lt;b&gt;%A_NAME%&lt;/b&gt;&lt;/font&gt;&lt;br&gt;&lt;div&gt;&lt;font style=&quot;font-size: 11px&quot;&gt;[Software System]&lt;/font&gt;&lt;/div&gt;&lt;div style=&quot;font-size: 10px&quot;&gt;&lt;br&gt;&lt;/div&gt;&lt;div style=&quot;font-size: 11px&quot;&gt;&lt;font color=&quot;#CCCCCC&quot;&gt;%B_DESCRIPTION%&lt;/font&gt;&lt;/div&gt;" placeholders="1" A_NAME="Google Analytics" B_DESCRIPTION="Target GTM property/view" id="nUrpw0ir7B1ttyLOeplj-10">
          <mxCell style="rounded=1;whiteSpace=wrap;html=1;fontColor=#ffffff;arcSize=6;metaEdit=1;points=[[0.25,0,0],[0.5,0,0],[0.75,0,0],[1,0.25,0],[1,0.5,0],[1,0.75,0],[0.75,1,0],[0.5,1,0],[0.25,1,0],[0,0.75,0],[0,0.5,0],[0,0.25,0]];resizable=0;editable=1;movableLabel=0;allowArrows=0;rotatable=0;fillColor=#8C8496;strokeColor=#736782;recursiveResize=0;expand=0;" vertex="1" parent="nUrpw0ir7B1ttyLOeplj-1">
            <mxGeometry x="590" y="470" width="240" height="120" as="geometry" />
          </mxCell>
        </object>
        <object label="&lt;div style=&quot;font-size: 16px&quot;&gt;&lt;font style=&quot;font-size: 16px&quot; color=&quot;#4D4D4D&quot;&gt;&lt;b&gt;&lt;font style=&quot;font-size: 16px&quot;&gt;[Containers] %A_C2_DIAGRAM_NAME%&lt;br&gt;&lt;/font&gt;&lt;/b&gt;&lt;/font&gt;&lt;/div&gt;&lt;div&gt;&lt;font style=&quot;font-size: 12px&quot; color=&quot;#4D4D4D&quot;&gt;%B_C2_DIAGRAM_DESCRIPTION%&lt;br&gt;&lt;/font&gt;&lt;/div&gt;" placeholders="1" A_C2_DIAGRAM_NAME="Auditor System" B_C2_DIAGRAM_DESCRIPTION="System that retrieve, processes and displays audit data" id="qc1eYoyOGGdkzKvzuEJv-1">
          <mxCell style="text;html=1;strokeColor=none;fillColor=none;align=left;verticalAlign=top;whiteSpace=wrap;rounded=0;metaEdit=1;allowArrows=0;resizable=1;rotatable=0;pointerEvents=0;expand=0;recursiveResize=0;connectable=0;" vertex="1" parent="nUrpw0ir7B1ttyLOeplj-1">
            <mxGeometry x="10" y="10" width="260" height="40" as="geometry" />
          </mxCell>
        </object>
        <object label="&lt;div style=&quot;font-size: 16px&quot; align=&quot;left&quot;&gt;&lt;font style=&quot;font-size: 16px&quot; color=&quot;#4D4D4D&quot;&gt;&lt;b&gt;%A_NAME%&lt;br&gt;&lt;/b&gt;&lt;/font&gt;&lt;/div&gt;&lt;div align=&quot;left&quot;&gt;&lt;font style=&quot;font-size: 11px&quot; color=&quot;#4D4D4D&quot;&gt;[Software System]&lt;/font&gt;&lt;/div&gt;" placeholders="1" A_NAME="Auditor System" id="qc1eYoyOGGdkzKvzuEJv-2">
          <mxCell style="rounded=1;whiteSpace=wrap;html=1;dashed=1;arcSize=20;fillColor=none;strokeColor=#666666;fontColor=#333333;labelBackgroundColor=none;align=left;verticalAlign=bottom;labelBorderColor=none;spacingTop=0;spacing=10;dashPattern=8 4;metaEdit=1;rotatable=0;perimeter=rectanglePerimeter;noLabel=0;labelPadding=0;allowArrows=0;connectable=0;expand=0;recursiveResize=0;editable=1;pointerEvents=0;absoluteArcSize=1;" vertex="1" parent="nUrpw0ir7B1ttyLOeplj-1">
            <mxGeometry x="125" y="500" width="435" height="380" as="geometry" />
          </mxCell>
        </object>
      </root>
    </mxGraphModel>
  </diagram>
</mxfile>
